<svg width="360" height="52" viewBox="0 0 360 52" fill="none" xmlns="http://www.w3.org/2000/svg">
<path fill-rule="evenodd" clip-rule="evenodd" d="M20.2777 51.889C25.2166 51.889 29.4781 50.0969 33.0623 46.5127L33.5703 51H41.1057L41.148 21.8747H22.3097V30.5107L27.8977 31.7807V36.0987C27.8977 37.6227 27.7566 38.8786 27.4743 39.8663C27.1921 40.8259 26.7547 41.5597 26.162 42.0677C25.5693 42.5474 24.9343 42.8861 24.257 43.0837C23.5797 43.253 22.7471 43.3377 21.7593 43.3377C19.7556 43.3377 18.415 41.856 17.7377 38.8927C17.0886 35.9293 16.764 31.3856 16.764 25.2613C16.764 22.3262 16.891 19.8427 17.145 17.8107C17.399 15.7504 17.7236 14.1277 18.1187 12.9423C18.542 11.7288 19.1064 10.8116 19.812 10.1907C20.5458 9.54156 21.2796 9.11822 22.0133 8.92067C22.7471 8.72311 23.6784 8.62434 24.8073 8.62434C26.1902 8.62434 27.1921 8.79367 27.813 9.13233L30.226 14.7627H37.9307L38.5657 5.026L38.3117 4.772C38.227 4.65911 37.9871 4.44745 37.592 4.137C37.1969 3.82656 36.7594 3.54433 36.2797 3.29034C35.8281 3.00811 35.1931 2.69767 34.3747 2.359C33.5844 1.99211 32.7378 1.69578 31.8347 1.47C30.9316 1.216 29.8309 1.00433 28.5327 0.835002C27.2627 0.665669 25.9221 0.581002 24.511 0.581002C21.3783 0.581002 18.5843 0.863224 16.129 1.42767C13.6737 1.96389 11.5852 2.78233 9.86367 3.883C8.14211 4.98367 6.68867 6.28189 5.50333 7.77767C4.318 9.24522 3.38667 10.995 2.70933 13.027C2.032 15.059 1.53811 17.1898 1.22767 19.4193C0.945444 21.6489 0.804333 24.1607 0.804333 26.9547C0.804333 30.7082 1.143 34.0526 1.82033 36.9877C2.52589 39.9228 3.62656 42.5333 5.12233 44.8193C6.61811 47.1053 8.636 48.8551 11.176 50.0687C13.7442 51.2822 16.7781 51.889 20.2777 51.889ZM67.813 43.0837L69.718 51H84.9346H85.2544H97.6769L98.9892 21.8323L99.2432 11.0797L107.033 46.047H118.082L124.559 11.0797L125.067 21.8323L127.226 51H140.391L136.751 1.38533H119.055L115.753 18.0647L114.145 26.4467L112.451 18.0223L108.726 1.38533H88.8716L85.0042 50.1222L71.115 1.38533H53.6314L54.6474 4.81433L41.7357 51H54.1817L55.7904 43.0837H67.813ZM57.526 34.4477L61.2514 15.948L65.7387 34.4477H57.526ZM144.099 51H174.113V40.4167L158.111 40.84V29.5793L169.541 30.426V20.52H158.111V10.9527L172.632 11.376L173.478 1.38533H144.099V51ZM177.957 51H191.97V32.5003L203.4 33.347V22.8483H191.97V11.3337L205.897 12.1803V1.38533H177.957V51ZM224.745 41.602C224.039 39.7676 223.686 36.5079 223.686 31.823V21.1973C223.686 16.0891 224.039 12.5754 224.745 10.6563C225.478 8.709 226.748 7.73534 228.555 7.73534C230.361 7.73534 231.659 8.72311 232.449 10.6987C233.24 12.6742 233.635 15.6799 233.635 19.7157V29.918C233.635 34.0667 233.451 37.1852 233.084 39.2737C232.746 41.3339 232.238 42.7027 231.56 43.38C230.883 44.0291 229.881 44.3537 228.555 44.3537C226.748 44.3537 225.478 43.4364 224.745 41.602ZM221.316 51.254C223.207 51.6773 225.323 51.889 227.666 51.889C231.109 51.889 234.086 51.508 236.598 50.746C239.138 49.9558 241.212 48.8833 242.821 47.5287C244.43 46.1458 245.714 44.3678 246.673 42.1947C247.633 39.9933 248.296 37.6368 248.663 35.125C249.03 32.6132 249.213 29.664 249.213 26.2773C249.213 23.9913 249.143 21.9452 249.002 20.139C248.861 18.3328 248.607 16.5124 248.24 14.678C247.873 12.8436 247.379 11.249 246.758 9.89433C246.165 8.51144 245.361 7.21322 244.345 5.99967C243.357 4.78611 242.186 3.79834 240.831 3.03634C239.477 2.27433 237.854 1.68167 235.963 1.25834C234.072 0.80678 231.941 0.581002 229.571 0.581002C226.128 0.581002 223.136 0.976112 220.596 1.76633C218.084 2.55656 216.024 3.64311 214.415 5.026C212.835 6.40889 211.565 8.21511 210.605 10.4447C209.646 12.646 208.983 15.0026 208.616 17.5143C208.277 20.0261 208.108 22.9753 208.108 26.362C208.108 28.648 208.178 30.7082 208.319 32.5427C208.46 34.3489 208.714 36.1692 209.081 38.0037C209.448 39.8099 209.928 41.3903 210.521 42.745C211.142 44.0997 211.946 45.3697 212.934 46.555C213.95 47.7403 215.135 48.714 216.49 49.476C217.844 50.238 219.453 50.8307 221.316 51.254ZM267.539 51V34.49C267.765 34.49 268.118 34.5041 268.598 34.5323C269.106 34.5606 269.586 34.5888 270.037 34.617C270.489 34.6452 271.011 34.6734 271.603 34.7017H273.339H273.551C274.087 36.4232 274.496 38.5681 274.778 41.1363C275.089 43.6763 275.329 45.8636 275.498 47.698C275.667 49.5042 275.907 50.6049 276.218 51H291.839C291.246 50.238 290.696 49.095 290.188 47.571C289.708 46.047 289.271 44.5089 288.875 42.9567C288.509 41.3762 288.071 39.824 287.563 38.3C287.055 36.7478 286.335 35.4072 285.404 34.2783C284.501 33.1494 283.414 32.4298 282.144 32.1193C284.487 30.6236 286.364 28.6057 287.775 26.0657C289.214 23.5257 289.934 20.6188 289.934 17.345C289.934 11.8134 288.424 7.70711 285.404 5.026C282.413 2.34489 277.869 1.00433 271.773 1.00433C270.023 1.00433 267.807 1.07489 265.126 1.216C262.445 1.32889 260.427 1.38533 259.073 1.38533H253.485V51H267.539ZM268.894 26.616H267.539V9.17467H268.344C270.743 9.17467 272.577 9.66856 273.847 10.6563C275.145 11.6159 275.794 13.3233 275.794 15.7787V19.123C275.794 20.2519 275.71 21.2397 275.54 22.0863C275.371 22.933 275.117 23.6244 274.778 24.1607C274.44 24.6969 274.073 25.1343 273.678 25.473C273.311 25.8117 272.831 26.0657 272.238 26.235C271.674 26.3761 271.152 26.4749 270.672 26.5313C270.192 26.5878 269.6 26.616 268.894 26.616ZM325.485 47.952L325.866 47.4863L323.961 40.7977C322.945 41.5314 321.647 42.0818 320.066 42.4487C318.486 42.7873 316.976 42.9567 315.537 42.9567C314.888 42.9567 314.281 42.872 313.716 42.7027C313.152 42.5051 312.517 42.0677 311.811 41.3903C311.106 40.713 310.499 39.824 309.991 38.7233C309.483 37.5944 309.046 35.9858 308.679 33.8973C308.34 31.8089 308.171 29.3677 308.171 26.5737C308.171 21.8888 308.439 18.3046 308.975 15.821C309.511 13.3092 310.287 11.63 311.303 10.7833C312.319 9.90845 313.773 9.471 315.664 9.471C316.002 9.471 316.426 9.54156 316.934 9.68267L319.135 14.7203H325.57L326.205 4.98367C326.12 4.87078 325.979 4.71556 325.781 4.518C325.612 4.32044 325.161 3.96767 324.427 3.45967C323.721 2.95167 322.917 2.50011 322.014 2.105C321.139 1.70989 319.925 1.35711 318.373 1.04667C316.849 0.736224 315.212 0.581002 313.462 0.581002C309.652 0.581002 306.421 1.15956 303.768 2.31667C301.115 3.47378 299.027 5.20944 297.503 7.52367C296.007 9.80967 294.935 12.4767 294.285 15.5247C293.636 18.5444 293.312 22.1428 293.312 26.3197C293.312 30.2426 293.636 33.6998 294.285 36.6913C294.935 39.6547 295.993 42.3217 297.46 44.6923C298.956 47.0348 301.016 48.8269 303.641 50.0687C306.266 51.2822 309.427 51.889 313.124 51.889C314.874 51.889 316.51 51.7338 318.034 51.4233C319.558 51.1411 320.772 50.7883 321.675 50.365C322.606 49.9134 323.397 49.476 324.046 49.0527C324.723 48.6011 325.203 48.2342 325.485 47.952ZM329.638 51H359.652V40.4167L343.65 40.84V29.5793L355.08 30.426V20.52H343.65V10.9527L358.171 11.376L359.017 1.38533H329.638V51Z" fill="url(#paint0_linear_26_70)"/>
<defs>
<linearGradient id="paint0_linear_26_70" x1="180.5" y1="-27" x2="190.5" y2="146" gradientUnits="userSpaceOnUse">
<stop stop-color="#24DE4D"/>
<stop offset="1"/>
</linearGradient>
</defs>
</svg>
