<svg width="34" height="34" viewBox="0 0 34 34" fill="none" xmlns="http://www.w3.org/2000/svg">
<g id="mingcute:search-line" clip-path="url(#clip0_9_478)">
<g id="Group">
<path id="Vector" fill-rule="evenodd" clip-rule="evenodd" d="M14.8746 2.83334C12.9545 2.83351 11.0622 3.29286 9.35566 4.17308C7.64913 5.05329 6.17784 6.32885 5.06454 7.89333C3.95125 9.4578 3.22822 11.2658 2.9558 13.1666C2.68337 15.0673 2.86944 17.0056 3.49848 18.8198C4.12752 20.634 5.18129 22.2715 6.57188 23.5956C7.96247 24.9197 9.64954 25.8921 11.4924 26.4316C13.3352 26.9711 15.2803 27.0621 17.1654 26.697C19.0505 26.3318 20.821 25.5212 22.3291 24.3327L27.5028 29.5063C27.77 29.7644 28.1278 29.9072 28.4993 29.904C28.8707 29.9007 29.226 29.7517 29.4887 29.4891C29.7514 29.2264 29.9004 28.8711 29.9036 28.4997C29.9068 28.1282 29.764 27.7704 29.506 27.5032L24.3323 22.3295C25.732 20.5539 26.6034 18.4201 26.847 16.1723C27.0906 13.9245 26.6964 11.6535 25.7096 9.61931C24.7228 7.58508 23.1832 5.86976 21.2671 4.66967C19.3509 3.46958 17.1356 2.83319 14.8746 2.83334ZM5.66629 14.875C5.66629 12.4328 6.63645 10.0906 8.36335 8.36374C10.0902 6.63684 12.4324 5.66668 14.8746 5.66668C17.3168 5.66668 19.659 6.63684 21.3859 8.36374C23.1128 10.0906 24.083 12.4328 24.083 14.875C24.083 17.3172 23.1128 19.6594 21.3859 21.3863C19.659 23.1132 17.3168 24.0833 14.8746 24.0833C12.4324 24.0833 10.0902 23.1132 8.36335 21.3863C6.63645 19.6594 5.66629 17.3172 5.66629 14.875Z" fill="black"/>
</g>
</g>
<defs>
<clipPath id="clip0_9_478">
<rect width="34" height="34" fill="white"/>
</clipPath>
</defs>
</svg>
